<?xml version="1.0" encoding="UTF-8" standalone="no"?>
<svg
   xmlns:dc="http://purl.org/dc/elements/1.1/"
   xmlns:cc="http://creativecommons.org/ns#"
   xmlns:rdf="http://www.w3.org/1999/02/22-rdf-syntax-ns#"
   xmlns:svg="http://www.w3.org/2000/svg"
   xmlns="http://www.w3.org/2000/svg"
   xmlns:sodipodi="http://sodipodi.sourceforge.net/DTD/sodipodi-0.dtd"
   xmlns:inkscape="http://www.inkscape.org/namespaces/inkscape"
   viewBox="0 0 198.51 198.57"
   version="1.1"
   id="svg20"
   sodipodi:docname="mercode-laptop.svg"
   inkscape:version="0.92.4 5da689c313, 2019-01-14">
  <metadata
     id="metadata24">
    <rdf:RDF>
      <cc:Work
         rdf:about="">
        <dc:format>image/svg+xml</dc:format>
        <dc:type
           rdf:resource="http://purl.org/dc/dcmitype/StillImage" />
        <dc:title>fe</dc:title>
      </cc:Work>
    </rdf:RDF>
  </metadata>
  <sodipodi:namedview
     pagecolor="#ffffff"
     bordercolor="#666666"
     borderopacity="1"
     objecttolerance="10"
     gridtolerance="10"
     guidetolerance="10"
     inkscape:pageopacity="0"
     inkscape:pageshadow="2"
     inkscape:window-width="1366"
     inkscape:window-height="719"
     id="namedview22"
     showgrid="false"
     inkscape:zoom="1.3092045"
     inkscape:cx="87.656645"
     inkscape:cy="38.179195"
     inkscape:window-x="0"
     inkscape:window-y="25"
     inkscape:window-maximized="1"
     inkscape:current-layer="svg20" />
  <defs
     id="defs4">
    <style
       id="style2">.cls-1{fill:#fff;}</style>
  </defs>
  <title
     id="title6">fe</title>
  <path
     inkscape:connector-curvature="0"
     d="M 1.1934638,144.9703 103.5548,134.53849 l 1.25056,19.99544 -46.4101,3.76067 a 30.310293,30.310293 0 0 1 -9.541129,-0.72874 L 1.107994,146.27934 a 0.66576482,0.66576482 0 0 1 0.08547,-1.30904 z"
     id="path263"
     style="fill:#ff6600;stroke-width:0.44984108" />
  <path
     inkscape:connector-curvature="0"
     d="m 25.462391,145.69904 54.124883,-5.51505 0.661266,10.57127 -24.538831,1.99279 a 16.027839,16.027839 0 0 1 -5.047217,-0.39136 l -25.245086,-5.96938 a 0.35087606,0.35087606 0 0 1 0.04499,-0.68827 z"
     id="path265"
     style="opacity:0.3;fill:#bfbfbf;stroke-width:0.44984108" />
  <path
     inkscape:connector-curvature="0"
     d="M 83.689825,32.613496 188.56577,31.021059 a 10.229386,10.229386 0 0 1 9.13627,11.398973 l -11.89829,99.055008 a 10.229386,10.229386 0 0 1 -9.54113,8.99682 L 69.056494,157.10702 A 10.229386,10.229386 0 0 1 58.323286,145.41115 L 72.556258,41.308924 a 10.229386,10.229386 0 0 1 11.133567,-8.695428 z"
     id="path287"
     style="fill:#ff6600;stroke-width:0.44984108" />
  <g
     transform="matrix(0.11420279,0.0457694,-0.04590447,0.13678911,124.25426,78.618022)"
     id="katman_2"
     data-name="katman 2"
     style="fill:#ffffff">
    <g
       id="katman_3"
       data-name="katman 3"
       style="fill:#ffffff">
      <path
         class="cls-1"
         d="m 189.32,57.52 c -0.62,-1.36 -1.27,-2.72 -2,-4.07 A 100.1,100.1 0 0 0 176.26,36.59 C 115.74,65 43.68,73.84 2.66,76.59 A 98.81,98.81 0 0 0 7,135.89 c 53.23,-17.36 138.34,-47.86 181.93,-78 z"
         id="path8"
         inkscape:connector-curvature="0"
         style="fill:#ffffff" />
      <path
         class="cls-1"
         d="m 53.45,11.22 a 98.86,98.86 0 0 0 -43,43.69 C 35.06,47.32 90.28,28.43 123.56,3 a 98.91,98.91 0 0 0 -70.11,8.22 z"
         id="path10"
         inkscape:connector-curvature="0"
         style="fill:#ffffff" />
      <path
         class="cls-1"
         d="M 186.64,146.11 A 297.08,297.08 0 0 0 85.43,197.47 v 0 c 0,0 0,0.07 0,0.11 a 99.17,99.17 0 0 0 101.33,-51.42 z"
         id="path12"
         inkscape:connector-curvature="0"
         style="fill:#ffffff" />
      <path
         class="cls-1"
         d="M 197.62,86.88 50,185.23 a 0.91,0.91 0 0 0 0,0.17 100,100 0 0 0 19.52,8.6 v 0 h -0.07 c 22.06,-19.83 67.19,-54.92 126,-72 l 0.42,-0.15 a 99.29,99.29 0 0 0 1.83,-34.92 z"
         id="path14"
         inkscape:connector-curvature="0"
         style="fill:#ffffff" />
      <path
         class="cls-1"
         d="M 35.71,174.49 C 124.57,123.61 69,125.7 16.66,154 l -0.09,0.11 a 98.54,98.54 0 0 0 18.3,20.69 5.61,5.61 0 0 1 0.84,-0.31 z"
         id="path16"
         inkscape:connector-curvature="0"
         style="fill:#ffffff" />
    </g>
  </g>
</svg>
