<?xml version="1.0" encoding="UTF-8" standalone="no"?>
<svg
   xmlns:dc="http://purl.org/dc/elements/1.1/"
   xmlns:cc="http://creativecommons.org/ns#"
   xmlns:rdf="http://www.w3.org/1999/02/22-rdf-syntax-ns#"
   xmlns:svg="http://www.w3.org/2000/svg"
   xmlns="http://www.w3.org/2000/svg"
   xmlns:sodipodi="http://sodipodi.sourceforge.net/DTD/sodipodi-0.dtd"
   xmlns:inkscape="http://www.inkscape.org/namespaces/inkscape"
   width="16"
   height="16"
   version="1.1"
   id="svg4"
   sodipodi:docname="mercode-secure.svg"
   inkscape:version="0.92.4 5da689c313, 2019-01-14">
  <metadata
     id="metadata10">
    <rdf:RDF>
      <cc:Work
         rdf:about="">
        <dc:format>image/svg+xml</dc:format>
        <dc:type
           rdf:resource="http://purl.org/dc/dcmitype/StillImage" />
        <dc:title></dc:title>
      </cc:Work>
    </rdf:RDF>
  </metadata>
  <defs
     id="defs8" />
  <sodipodi:namedview
     pagecolor="#ffffff"
     bordercolor="#666666"
     borderopacity="1"
     objecttolerance="10"
     gridtolerance="10"
     guidetolerance="10"
     inkscape:pageopacity="0"
     inkscape:pageshadow="2"
     inkscape:window-width="1366"
     inkscape:window-height="719"
     id="namedview6"
     showgrid="false"
     inkscape:zoom="29.171554"
     inkscape:cx="6.3293118"
     inkscape:cy="8.3986652"
     inkscape:window-x="0"
     inkscape:window-y="25"
     inkscape:window-maximized="1"
     inkscape:current-layer="svg4"
     inkscape:pagecheckerboard="true" />
  <path
     style="fill:#ff6600"
     class="warning"
     d="M 8 0 L 2 2 L 2 9 C 2 11.07 3.5795 12.489 4.9395 13.439 C 6.2995 14.389 8 15 8 15 C 8 15 9.7005 14.389 11.061 13.439 C 12.421 12.479 14 11.04 14 9 L 14 2 L 8 0 z M 7 3 L 9 3 L 9 9 L 7 9 L 7 3 z M 7 10 L 9 10 L 9 12 L 7 12 L 7 10 z"
     id="path2" />
  <rect
     style="opacity:1;fill:#ff6600;fill-opacity:1;stroke:none;stroke-width:1.23300004;stroke-linecap:square;stroke-linejoin:miter;stroke-miterlimit:4;stroke-dasharray:none;stroke-dashoffset:0;stroke-opacity:1;paint-order:normal"
     id="rect812"
     width="6.5931711"
     height="10.713903"
     x="4.8479199"
     y="2.0379906"
     rx="1.25"
     ry="0.65598398" />
  <g
     transform="matrix(0.03750057,0,0,0.03750057,4.2635897,3.6759376)"
     id="katman_2"
     data-name="katman 2">
    <g
       id="katman_3"
       data-name="katman 3">
      <path
         class="cls-1"
         d="m 189.32,57.52 c -0.62,-1.36 -1.27,-2.72 -2,-4.07 A 100.1,100.1 0 0 0 176.26,36.59 C 115.74,65 43.68,73.84 2.66,76.59 A 98.81,98.81 0 0 0 7,135.89 c 53.23,-17.36 138.34,-47.86 181.93,-78 z"
         id="path8"
         inkscape:connector-curvature="0"
         style="fill:#ffffff" />
      <path
         class="cls-1"
         d="m 53.45,11.22 a 98.86,98.86 0 0 0 -43,43.69 C 35.06,47.32 90.28,28.43 123.56,3 a 98.91,98.91 0 0 0 -70.11,8.22 z"
         id="path10"
         inkscape:connector-curvature="0"
         style="fill:#ffffff" />
      <path
         class="cls-1"
         d="M 186.64,146.11 A 297.08,297.08 0 0 0 85.43,197.47 v 0 c 0,0 0,0.07 0,0.11 a 99.17,99.17 0 0 0 101.33,-51.42 z"
         id="path12"
         inkscape:connector-curvature="0"
         style="fill:#ffffff" />
      <path
         class="cls-1"
         d="M 197.62,86.88 50,185.23 a 0.91,0.91 0 0 0 0,0.17 100,100 0 0 0 19.52,8.6 v 0 h -0.07 c 22.06,-19.83 67.19,-54.92 126,-72 l 0.42,-0.15 a 99.29,99.29 0 0 0 1.83,-34.92 z"
         id="path14"
         inkscape:connector-curvature="0"
         style="fill:#ffffff" />
      <path
         class="cls-1"
         d="M 35.71,174.49 C 124.57,123.61 69,125.7 16.66,154 l -0.09,0.11 a 98.54,98.54 0 0 0 18.3,20.69 5.61,5.61 0 0 1 0.84,-0.31 z"
         id="path16"
         inkscape:connector-curvature="0"
         style="fill:#ffffff" />
    </g>
  </g>
</svg>
