<?xml version="1.0" encoding="UTF-8" standalone="no"?>
<!-- Generator: Adobe Illustrator 19.0.0, SVG Export Plug-In . SVG Version: 6.00 Build 0)  -->

<svg
   xmlns:dc="http://purl.org/dc/elements/1.1/"
   xmlns:cc="http://creativecommons.org/ns#"
   xmlns:rdf="http://www.w3.org/1999/02/22-rdf-syntax-ns#"
   xmlns:svg="http://www.w3.org/2000/svg"
   xmlns="http://www.w3.org/2000/svg"
   xmlns:sodipodi="http://sodipodi.sourceforge.net/DTD/sodipodi-0.dtd"
   xmlns:inkscape="http://www.inkscape.org/namespaces/inkscape"
   version="1.1"
   id="Layer_1"
   x="0px"
   y="0px"
   viewBox="0 0 511.999 511.999"
   style="enable-background:new 0 0 511.999 511.999;"
   xml:space="preserve"
   sodipodi:docname="solidarity.svg"
   inkscape:version="0.92.4 5da689c313, 2019-01-14"><metadata
   id="metadata43"><rdf:RDF><cc:Work
       rdf:about=""><dc:format>image/svg+xml</dc:format><dc:type
         rdf:resource="http://purl.org/dc/dcmitype/StillImage" /><dc:title></dc:title></cc:Work></rdf:RDF></metadata><defs
   id="defs41" /><sodipodi:namedview
   pagecolor="#ffffff"
   bordercolor="#666666"
   borderopacity="1"
   objecttolerance="10"
   gridtolerance="10"
   guidetolerance="10"
   inkscape:pageopacity="0"
   inkscape:pageshadow="2"
   inkscape:window-width="1366"
   inkscape:window-height="719"
   id="namedview39"
   showgrid="false"
   inkscape:zoom="0.91161284"
   inkscape:cx="213.13981"
   inkscape:cy="243.48202"
   inkscape:window-x="0"
   inkscape:window-y="25"
   inkscape:window-maximized="1"
   inkscape:current-layer="Layer_1" />
<path
   style="fill:#ff6600"
   d="M103.919,51.744c0,0,41.296,33.496,109.008,18.4c64.2-14.264,124.056-30.464,224.616,5.856v215.032  c0,0-92.488-44.104-176.736-24.432s-131.88,12.12-156.888-12.888"
   id="path2" />
<rect
   x="90.74"
   y="37.524"
   style="fill:#bfbfbf"
   width="16"
   height="474.475"
   id="rect4" />
<circle
   style="fill:#808080"
   cx="98.741"
   cy="24.284"
   r="24.284"
   id="circle6" />
<g
   id="g8">
</g>
<g
   id="g10">
</g>
<g
   id="g12">
</g>
<g
   id="g14">
</g>
<g
   id="g16">
</g>
<g
   id="g18">
</g>
<g
   id="g20">
</g>
<g
   id="g22">
</g>
<g
   id="g24">
</g>
<g
   id="g26">
</g>
<g
   id="g28">
</g>
<g
   id="g30">
</g>
<g
   id="g32">
</g>
<g
   id="g34">
</g>
<g
   id="g36">
</g>
<g
   transform="matrix(0.31864457,0,0,0.31864457,125.03907,94.079619)"
   id="katman_2"
   data-name="katman 2"><g
     id="katman_3"
     data-name="katman 3"><path
       class="cls-1"
       d="m 189.32,57.52 c -0.62,-1.36 -1.27,-2.72 -2,-4.07 A 100.1,100.1 0 0 0 176.26,36.59 C 115.74,65 43.68,73.84 2.66,76.59 A 98.81,98.81 0 0 0 7,135.89 c 53.23,-17.36 138.34,-47.86 181.93,-78 z"
       id="path8"
       inkscape:connector-curvature="0"
       style="fill:#ffffff" /><path
       class="cls-1"
       d="m 53.45,11.22 a 98.86,98.86 0 0 0 -43,43.69 C 35.06,47.32 90.28,28.43 123.56,3 a 98.91,98.91 0 0 0 -70.11,8.22 z"
       id="path10"
       inkscape:connector-curvature="0"
       style="fill:#ffffff" /><path
       class="cls-1"
       d="M 186.64,146.11 A 297.08,297.08 0 0 0 85.43,197.47 v 0 c 0,0 0,0.07 0,0.11 a 99.17,99.17 0 0 0 101.33,-51.42 z"
       id="path12"
       inkscape:connector-curvature="0"
       style="fill:#ffffff" /><path
       class="cls-1"
       d="M 197.62,86.88 50,185.23 a 0.91,0.91 0 0 0 0,0.17 100,100 0 0 0 19.52,8.6 v 0 h -0.07 c 22.06,-19.83 67.19,-54.92 126,-72 l 0.42,-0.15 a 99.29,99.29 0 0 0 1.83,-34.92 z"
       id="path14"
       inkscape:connector-curvature="0"
       style="fill:#ffffff" /><path
       class="cls-1"
       d="M 35.71,174.49 C 124.57,123.61 69,125.7 16.66,154 l -0.09,0.11 a 98.54,98.54 0 0 0 18.3,20.69 5.61,5.61 0 0 1 0.84,-0.31 z"
       id="path16"
       inkscape:connector-curvature="0"
       style="fill:#ffffff" /></g></g></svg>