<?xml version="1.0" encoding="UTF-8" standalone="no"?>
<svg
   xmlns:dc="http://purl.org/dc/elements/1.1/"
   xmlns:cc="http://creativecommons.org/ns#"
   xmlns:rdf="http://www.w3.org/1999/02/22-rdf-syntax-ns#"
   xmlns:svg="http://www.w3.org/2000/svg"
   xmlns="http://www.w3.org/2000/svg"
   xmlns:sodipodi="http://sodipodi.sourceforge.net/DTD/sodipodi-0.dtd"
   xmlns:inkscape="http://www.inkscape.org/namespaces/inkscape"
   viewBox="0 0 198.51 198.57"
   version="1.1"
   id="svg20"
   sodipodi:docname="mercode-store.svg"
   inkscape:version="0.92.4 5da689c313, 2019-01-14">
  <metadata
     id="metadata24">
    <rdf:RDF>
      <cc:Work
         rdf:about="">
        <dc:format>image/svg+xml</dc:format>
        <dc:type
           rdf:resource="http://purl.org/dc/dcmitype/StillImage" />
        <dc:title>fe</dc:title>
      </cc:Work>
    </rdf:RDF>
  </metadata>
  <sodipodi:namedview
     pagecolor="#ffffff"
     bordercolor="#666666"
     borderopacity="1"
     objecttolerance="10"
     gridtolerance="10"
     guidetolerance="10"
     inkscape:pageopacity="0"
     inkscape:pageshadow="2"
     inkscape:window-width="1366"
     inkscape:window-height="719"
     id="namedview22"
     showgrid="false"
     inkscape:pagecheckerboard="true"
     inkscape:zoom="2.4744894"
     inkscape:cx="213.74326"
     inkscape:cy="99.285004"
     inkscape:window-x="0"
     inkscape:window-y="25"
     inkscape:window-maximized="1"
     inkscape:current-layer="svg20" />
  <defs
     id="defs4">
    <style
       id="style2">.cls-1{fill:#fff;}</style>
  </defs>
  <title
     id="title6">fe</title>
  <path
     inkscape:connector-curvature="0"
     style="opacity:0.2;stroke-width:3.54360271"
     d="M 70.756601,16.797694 V 23.8849 H 127.45425 V 16.797694 Z M -0.11545889,169.17261 v 7.08721 c 0,5.88946 4.74134029,10.6308 10.63080789,10.6308 H 187.69549 c 5.88947,0 10.63081,-4.74134 10.63081,-10.6308 v -7.08721 c 0,5.88947 -4.74134,10.63081 -10.63081,10.63081 H 10.515349 c -5.8894676,0 -10.63080789,-4.74134 -10.63080789,-10.63081 z"
     id="path2" />
  <path
     inkscape:connector-curvature="0"
     style="fill:#ff6600;stroke-width:3.54360271"
     d="M 70.756601,6.1668866 56.58219,20.341297 V 41.602911 H -0.11545889 V 172.71621 c 0,5.88947 4.74134029,10.63081 10.63080789,10.63081 H 187.69549 c 5.88947,0 10.63081,-4.74134 10.63081,-10.63081 V 41.602911 H 141.62866 V 20.341297 L 127.45425,6.1668866 Z m 0,14.1744104 H 127.45425 V 41.602911 H 70.756601 Z"
     id="path4" />
  <g
     transform="matrix(0.47527642,0,0,0.47527642,50.705941,64.514907)"
     id="katman_2-3"
     data-name="katman 2"
     style="fill:#ffffff">
    <g
       id="katman_3-6"
       data-name="katman 3"
       style="fill:#ffffff">
      <path
         class="cls-1"
         d="m 189.32,57.52 c -0.62,-1.36 -1.27,-2.72 -2,-4.07 A 100.1,100.1 0 0 0 176.26,36.59 C 115.74,65 43.68,73.84 2.66,76.59 A 98.81,98.81 0 0 0 7,135.89 c 53.23,-17.36 138.34,-47.86 181.93,-78 z"
         id="path8-7"
         inkscape:connector-curvature="0"
         style="fill:#ffffff" />
      <path
         class="cls-1"
         d="m 53.45,11.22 a 98.86,98.86 0 0 0 -43,43.69 C 35.06,47.32 90.28,28.43 123.56,3 a 98.91,98.91 0 0 0 -70.11,8.22 z"
         id="path10-5"
         inkscape:connector-curvature="0"
         style="fill:#ffffff" />
      <path
         class="cls-1"
         d="M 186.64,146.11 A 297.08,297.08 0 0 0 85.43,197.47 v 0 c 0,0 0,0.07 0,0.11 a 99.17,99.17 0 0 0 101.33,-51.42 z"
         id="path12-3"
         inkscape:connector-curvature="0"
         style="fill:#ffffff" />
      <path
         class="cls-1"
         d="M 197.62,86.88 50,185.23 a 0.91,0.91 0 0 0 0,0.17 100,100 0 0 0 19.52,8.6 v 0 h -0.07 c 22.06,-19.83 67.19,-54.92 126,-72 l 0.42,-0.15 a 99.29,99.29 0 0 0 1.83,-34.92 z"
         id="path14-5"
         inkscape:connector-curvature="0"
         style="fill:#ffffff" />
      <path
         class="cls-1"
         d="M 35.71,174.49 C 124.57,123.61 69,125.7 16.66,154 l -0.09,0.11 a 98.54,98.54 0 0 0 18.3,20.69 5.61,5.61 0 0 1 0.84,-0.31 z"
         id="path16-6"
         inkscape:connector-curvature="0"
         style="fill:#ffffff" />
    </g>
  </g>
</svg>
